<svg width="600" height="700" viewBox="0 0 600 700" fill="none" xmlns="http://www.w3.org/2000/svg">
<path d="M197.223 510.856C211.42 507.576 307.67 469.141 315.518 486.467C337.639 535.298 307.485 570.411 267.216 579.821C230.112 588.492 194.99 569.598 184.921 552.807C178.046 541.341 197.255 535.381 206.659 532.713C197.657 535.466 177.749 541.874 173.494 529.093C169.534 517.198 190.465 512.6 197.223 510.856Z" fill="#0096CC"/>
<path d="M87.2202 422.488C104.591 411.732 140 462.824 140 462.824L95.9055 524C75.8625 487.698 69.8496 433.244 87.2202 422.488Z" fill="#00B2F2"/>
<path d="M311 503.031C311 584.163 262.85 612 201 612L201 460.116C260.038 460.116 311 455.596 311 503.031Z" fill="url(#paint0_linear_382_191)"/>
<path d="M91 503.031C91 584.163 139.15 612 201 612L201 460.116C141.962 460.116 91 455.596 91 503.031Z" fill="url(#paint1_linear_382_191)"/>
<path d="M178.312 685L128.313 685" stroke="#FA8901" stroke-width="30" stroke-linecap="round"/>
<path d="M294 685L244 685" stroke="#FA8901" stroke-width="30" stroke-linecap="round"/>
<path d="M178 331C178 303.386 200.386 281 228 281H290C317.614 281 340 303.386 340 331V453C340 480.614 317.614 503 290 503H228C200.386 503 178 480.614 178 453V331Z" fill="#00B2F2"/>
<rect x="295.881" y="343" width="38" height="82" rx="19" fill="white"/>
<rect x="220.881" y="343" width="52" height="82" rx="26" fill="white"/>
<rect x="228.881" y="358" width="37" height="53" rx="18.5" fill="black"/>
<rect x="245.881" y="352" width="18" height="26" rx="9" fill="white"/>
<rect x="290.881" y="358" width="37" height="53" rx="18.5" fill="black"/>
<rect x="309.881" y="352" width="18" height="26" rx="9" fill="white"/>
<path d="M305.881 419C305.881 419 289.794 381 305.881 343C295.093 343 279.335 343.792 277.381 343.792C275.427 343.792 277.735 391.423 280.381 415.5C290.965 415.954 305.881 419 305.881 419Z" fill="#00B2F2"/>
<path d="M322.724 302.368C338.136 299.468 357.384 253.109 347.241 247.174C341.113 243.588 324.555 257.127 307.985 267.423C306.765 252.04 299.171 239.435 294.879 239.008C287.15 238.239 275.918 292.292 257.032 285.98C241.923 280.93 249.127 283.715 254.617 285.739L293.689 304.897C298.136 300.855 301.373 296.406 303.642 291.786L322.724 302.368Z" fill="#00B2F2"/>
<path d="M257.381 436.445C257.381 447.5 254.5 447.5 350 447.5" stroke="#FA8901" stroke-width="20" stroke-linecap="round" stroke-linejoin="round"/>
<path d="M369.778 436.291C369.778 436.291 311 436.291 253 436.291C274.5 425 279.601 407.297 282.5 406.525C285.429 405.745 287.571 405.91 290.5 406.525C306 432.5 341 433 369.778 436.291Z" fill="#FFAB00" stroke="#FFAB00" stroke-width="20" stroke-linecap="round" stroke-linejoin="round"/>
<path d="M101.223 514.856C115.42 511.576 211.67 473.141 219.518 490.467C241.639 539.298 211.485 574.411 171.216 583.821C134.112 592.492 98.9899 573.598 88.9213 556.807C82.0458 545.341 101.255 539.381 110.659 536.713C101.657 539.466 81.7494 545.874 77.4943 533.093C73.5344 521.198 94.4653 516.6 101.223 514.856Z" fill="#0096CC"/>
<path d="M100.399 222.793C100.892 221.891 101.7 221.239 102.824 220.835C103.708 220.518 104.422 220.488 104.968 220.745C106.597 219.979 108.012 219.879 109.212 220.446C110.384 220.932 111.201 221.817 111.662 223.102C112.152 224.468 112.037 225.914 111.316 227.442C110.676 228.942 109.432 230.023 107.585 230.686L106.457 230.955C105.701 232.133 104.641 232.967 103.275 233.457C102.312 233.803 101.33 233.974 100.332 233.97C99.6788 234.929 98.7902 235.611 97.6657 236.015C96.5413 236.418 95.4076 236.417 94.2647 236.012C93.7107 237.752 92.7511 238.867 91.3857 239.357C90.5826 239.645 89.3284 239.688 87.6233 239.484C87.1537 240.196 86.3969 240.74 85.3528 241.115C84.4694 241.432 83.5025 241.643 82.4522 241.748C81.8859 242.949 80.9602 243.78 79.6752 244.241C78.4705 244.673 77.1875 244.635 75.8262 244.127C75.5626 244.403 75.1096 244.656 74.4671 244.887C73.9049 245.088 73.4889 245.192 73.2191 245.199C72.4921 246.457 71.5263 247.302 70.3216 247.735C69.6791 247.965 68.9933 248.076 68.2643 248.065C67.663 248.916 66.8001 249.543 65.6757 249.947C64.8725 250.235 63.9427 250.297 62.8863 250.132C61.3314 250.599 59.8271 250.323 58.3732 249.304C56.8904 248.204 55.8463 246.811 55.2408 245.125C54.5489 243.197 54.6467 241.575 55.5342 240.259C54.8258 238.791 54.7516 237.322 55.3118 235.851C55.9522 234.352 57.0499 233.369 58.6047 232.901C57.9415 231.054 58.1166 229.268 59.1298 227.545C60.1141 225.741 61.5516 223.683 63.442 221.373C62.5771 218.963 63.546 216.485 66.3488 213.937C66.0707 212.405 66.5413 210.559 67.7604 208.399C68.9507 206.158 70.245 204.334 71.6433 202.925C71.3714 201.663 71.4929 200.486 72.0078 199.394C72.5741 198.194 73.405 197.351 74.5006 196.867C73.7922 195.399 73.8127 193.941 74.5623 192.493C75.2831 190.965 76.4209 189.967 77.9757 189.5C77.7162 188.777 77.6462 188.077 77.7656 187.399C77.8851 186.722 78.0591 186.07 78.2877 185.444C78.5162 184.818 78.682 184.396 78.785 184.177C78.3937 183.593 78.1404 183.14 78.0251 182.818C77.6791 181.854 77.643 180.87 77.9169 179.865C78.162 178.78 78.6686 177.918 79.4367 177.28C78.8724 176.213 78.4461 175.278 78.1578 174.475C77.3505 172.226 77.0921 170.369 77.3824 168.905C76.2456 168.769 75.1686 168.295 74.1513 167.481C73.0495 167.695 71.9529 167.545 70.8614 167.03C69.7699 166.515 68.9565 165.765 68.421 164.778C68.1575 165.054 67.5839 165.351 66.7005 165.668C65.576 166.072 64.3394 166.289 62.9905 166.32C61.6931 166.242 60.648 165.982 59.8551 165.541C59.4144 166.334 58.704 167.133 57.7237 167.939C56.7434 168.744 55.7055 169.388 54.61 169.872C54.4164 170.848 53.8614 171.954 52.945 173.19C52.1089 174.397 51.278 175.239 50.4521 175.717C50.6663 176.819 50.4275 178.174 49.7355 179.782C49.0951 181.281 48.3249 182.419 47.425 183.195C48.0366 185.152 48.1972 186.862 47.9069 188.326C47.668 189.681 46.5848 190.705 44.6572 191.397C43.3722 191.858 42.0346 191.794 40.6446 191.205C39.306 190.507 38.406 189.516 37.9447 188.231C37.7429 187.668 37.6615 187.063 37.7007 186.414L37.2342 185.494C36.6576 183.887 36.6318 182.174 37.1569 180.354C37.7624 178.504 38.7014 177.079 39.9741 176.078C39.2306 174.26 39.2193 172.587 39.9401 171.059C40.7412 169.502 41.9448 168.435 43.5511 167.858C43.4749 166.888 44.0896 165.444 45.3953 163.524C46.7009 161.605 48.1311 160.412 49.6859 159.944C50.7856 158.461 52.7811 157.201 55.6725 156.163C56.9575 155.702 58.2199 155.43 59.4596 155.348C60.6705 155.185 61.6178 155.298 62.3016 155.687C62.9482 154.458 63.914 153.612 65.1991 153.151C66.1628 152.805 67.0926 152.743 67.9885 152.966C68.9358 153.079 69.5907 153.388 69.9531 153.892C71.7262 153.528 73.4149 154.191 75.0192 155.882C76.0118 155.616 76.9848 155.675 77.9383 156.058C78.9433 156.332 79.7248 156.867 80.2829 157.664C81.5227 157.582 82.8355 158.334 84.2215 159.922C85.6878 161.481 86.7957 163.305 87.5454 165.393C87.9202 166.437 88.1601 167.484 88.2651 168.534C88.7656 169.171 89.0879 169.69 89.232 170.091C89.4915 170.814 89.4555 171.598 89.1239 172.442C89.5152 173.027 89.7974 173.56 89.9703 174.042C90.4605 175.408 90.6294 176.888 90.477 178.484C90.3246 180.08 89.8386 181.252 89.019 182C89.3712 183.233 89.4824 184.553 89.3526 185.96C89.2744 187.257 88.9233 188.426 88.2993 189.466C88.6288 190.889 88.5681 192.361 88.1171 193.883C87.7176 195.296 86.8671 196.463 85.5656 197.383C85.6706 198.433 85.3885 199.668 84.7192 201.087C84.1302 202.477 83.4084 203.371 82.5538 203.768C82.7804 205.409 82.2954 207.216 81.0989 209.186C79.8736 211.077 78.4094 212.554 76.7063 213.619C76.9617 215.341 76.8979 216.678 76.5148 217.632C76.1318 218.585 75.1753 219.835 73.6452 221.382C74.3042 224.228 73.1746 226.764 70.2565 228.99C70.3739 230.58 70.3904 231.889 70.306 232.917C70.2216 233.944 69.9189 234.869 69.3978 235.691C70.3204 234.725 71.2235 234.083 72.1069 233.766C72.9904 233.449 74.0005 233.358 75.1373 233.494C75.7386 232.644 76.5613 232.031 77.6054 231.656C78.6495 231.281 79.5247 231.194 80.2311 231.394C81.1537 230.428 82.2173 229.729 83.4221 229.296C84.3859 228.95 85.2353 228.917 85.9705 229.197C86.749 227.83 88.0216 226.829 89.7886 226.195C91.0736 225.733 92.3792 225.582 93.7055 225.74C94.6507 224.585 95.8462 223.748 97.2918 223.229C98.2556 222.883 99.2915 222.738 100.399 222.793Z" fill="#161E39"/>
<path d="M468.048 146.824C468.816 146.141 469.797 145.8 470.992 145.8C471.931 145.8 472.613 146.013 473.04 146.44C474.832 146.269 476.197 146.653 477.136 147.592C478.075 148.445 478.544 149.555 478.544 150.92C478.544 152.371 477.947 153.693 476.752 154.888C475.643 156.083 474.107 156.68 472.144 156.68L470.992 156.552C469.883 157.405 468.603 157.832 467.152 157.832C466.128 157.832 465.147 157.661 464.208 157.32C463.269 158.003 462.203 158.344 461.008 158.344C459.813 158.344 458.747 157.96 457.808 157.192C456.699 158.643 455.419 159.368 453.968 159.368C453.115 159.368 451.92 158.984 450.384 158.216C449.701 158.728 448.805 158.984 447.696 158.984C446.757 158.984 445.776 158.856 444.752 158.6C443.813 159.539 442.661 160.008 441.296 160.008C440.016 160.008 438.821 159.539 437.712 158.6C437.371 158.771 436.859 158.856 436.176 158.856C435.579 158.856 435.152 158.813 434.896 158.728C433.787 159.667 432.592 160.136 431.312 160.136C430.629 160.136 429.947 160.008 429.264 159.752C428.411 160.349 427.387 160.648 426.192 160.648C425.339 160.648 424.443 160.392 423.504 159.88C421.883 159.795 420.56 159.027 419.536 157.576C418.512 156.04 418 154.376 418 152.584C418 150.536 418.64 149.043 419.92 148.104C419.749 146.483 420.176 145.075 421.2 143.88C422.309 142.685 423.675 142.131 425.296 142.216C425.296 140.253 426.064 138.632 427.6 137.352C429.136 135.987 431.184 134.536 433.744 133C433.744 130.44 435.493 128.435 438.992 126.984C439.248 125.448 440.315 123.869 442.192 122.248C444.069 120.541 445.904 119.261 447.696 118.408C447.867 117.128 448.379 116.061 449.232 115.208C450.171 114.269 451.237 113.757 452.432 113.672C452.261 112.051 452.773 110.685 453.968 109.576C455.163 108.381 456.571 107.827 458.192 107.912C458.192 107.144 458.363 106.461 458.704 105.864C459.045 105.267 459.429 104.712 459.856 104.2C460.283 103.688 460.581 103.347 460.752 103.176C460.581 102.493 460.496 101.981 460.496 101.64C460.496 100.616 460.795 99.6773 461.392 98.824C461.989 97.8853 462.757 97.2453 463.696 96.904C463.525 95.7093 463.44 94.6853 463.44 93.832C463.44 91.4427 463.824 89.608 464.592 88.328C463.568 87.816 462.715 87.0053 462.032 85.896C460.923 85.7253 459.941 85.2133 459.088 84.36C458.235 83.5067 457.723 82.5253 457.552 81.416C457.211 81.5867 456.571 81.672 455.632 81.672C454.437 81.672 453.2 81.4587 451.92 81.032C450.725 80.52 449.829 79.9227 449.232 79.24C448.549 79.8373 447.611 80.3493 446.416 80.776C445.221 81.2027 444.027 81.4587 442.832 81.544C442.32 82.3973 441.424 83.2507 440.144 84.104C438.949 84.9573 437.883 85.4693 436.944 85.64C436.773 86.7493 436.091 87.944 434.896 89.224C433.787 90.4187 432.677 91.2293 431.568 91.656C431.483 93.704 431.056 95.368 430.288 96.648C429.605 97.8427 428.24 98.44 426.192 98.44C424.827 98.44 423.589 97.928 422.48 96.904C421.456 95.7947 420.944 94.5573 420.944 93.192C420.944 92.5947 421.072 91.9973 421.328 91.4L421.2 90.376C421.2 88.6693 421.755 87.048 422.864 85.512C424.059 83.976 425.424 82.952 426.96 82.44C426.875 80.4773 427.429 78.8987 428.624 77.704C429.904 76.5093 431.397 75.912 433.104 75.912C433.36 74.9733 434.427 73.8213 436.304 72.456C438.181 71.0907 439.931 70.4507 441.552 70.536C443.088 69.512 445.392 69 448.464 69C449.829 69 451.109 69.1707 452.304 69.512C453.499 69.768 454.352 70.1947 454.864 70.792C455.888 69.8533 457.083 69.384 458.448 69.384C459.472 69.384 460.368 69.64 461.136 70.152C461.989 70.5787 462.501 71.0907 462.672 71.688C464.464 71.944 465.829 73.1387 466.768 75.272C467.792 75.3573 468.688 75.7413 469.456 76.424C470.309 77.0213 470.864 77.7893 471.12 78.728C472.315 79.0693 473.296 80.2213 474.064 82.184C474.917 84.1467 475.344 86.2373 475.344 88.456C475.344 89.5653 475.216 90.632 474.96 91.656C475.216 92.424 475.344 93.0213 475.344 93.448C475.344 94.216 475.045 94.9413 474.448 95.624C474.619 96.3067 474.704 96.904 474.704 97.416C474.704 98.8667 474.363 100.317 473.68 101.768C472.997 103.219 472.144 104.157 471.12 104.584C471.035 105.864 470.693 107.144 470.096 108.424C469.584 109.619 468.859 110.6 467.92 111.368C467.749 112.819 467.195 114.184 466.256 115.464C465.403 116.659 464.208 117.469 462.672 117.896C462.416 118.92 461.733 119.987 460.624 121.096C459.6 122.205 458.619 122.803 457.68 122.888C457.339 124.509 456.272 126.045 454.48 127.496C452.688 128.861 450.811 129.757 448.848 130.184C448.507 131.891 447.995 133.128 447.312 133.896C446.629 134.664 445.307 135.517 443.344 136.456C443.003 139.357 441.083 141.363 437.584 142.472C437.157 144.008 436.731 145.245 436.304 146.184C435.877 147.123 435.28 147.891 434.512 148.488C435.707 147.891 436.773 147.592 437.712 147.592C438.651 147.592 439.632 147.848 440.656 148.36C441.509 147.763 442.491 147.464 443.6 147.464C444.709 147.464 445.563 147.677 446.16 148.104C447.355 147.507 448.592 147.208 449.872 147.208C450.896 147.208 451.707 147.464 452.304 147.976C453.499 146.952 455.035 146.44 456.912 146.44C458.277 146.44 459.557 146.739 460.752 147.336C462.032 146.568 463.44 146.184 464.976 146.184C466 146.184 467.024 146.397 468.048 146.824Z" fill="#161E39"/>
<path d="M173.958 156.964C174.194 156.134 174.92 155.524 176.136 155.133C176.972 154.865 177.692 154.76 178.297 154.817C180.045 154.256 181.646 154.413 183.1 155.287C184.53 156.085 185.476 157.206 185.939 158.65C186.281 159.714 186.232 160.736 185.792 161.715C185.428 162.67 184.662 163.418 183.495 163.961C182.55 164.934 181.28 165.677 179.684 166.189C178.241 166.653 177.104 166.766 176.273 166.53C175.253 167.528 173.83 168.32 172.007 168.905C170.487 169.393 169.262 169.493 168.331 169.205C167.357 170.607 165.767 171.662 163.564 172.369C162.272 172.784 160.729 173.069 158.936 173.226C159.508 173.964 160.001 174.979 160.416 176.271C160.782 177.411 160.897 178.422 160.76 179.303C161.655 180.525 162.237 181.553 162.505 182.389C162.944 183.757 162.854 185.043 162.235 186.248C163.868 186.897 165.075 188.437 165.855 190.869C166.294 192.237 166.455 193.652 166.338 195.114C166.196 196.501 165.679 197.631 164.786 198.504C164.224 199.104 163.449 199.562 162.461 199.879C161.017 200.342 159.567 200.263 158.11 199.641C156.629 198.943 155.644 197.834 155.157 196.314C155.01 195.858 154.939 195.504 154.941 195.252C153.813 194.608 152.871 193.109 152.115 190.753C151.529 188.929 151.429 187.704 151.815 187.078C151.14 186.54 150.631 185.739 150.29 184.676C150.07 183.992 149.966 183.145 149.977 182.136C149.701 182.057 149.364 181.662 148.968 180.951C148.573 180.24 148.253 179.504 148.009 178.744C147.814 178.136 147.743 177.656 147.798 177.303C146.65 178.426 145.126 179.293 143.226 179.902C141.63 180.414 140.229 180.487 139.021 180.12C137.9 181.067 136.58 181.784 135.06 182.272C133.16 182.881 131.266 182.986 129.378 182.587C128.309 183.433 127.28 184.014 126.292 184.331C124.392 184.941 122.678 184.821 121.148 183.971C119.618 183.121 118.596 181.898 118.084 180.302C117.426 178.251 117.797 176.665 119.198 175.545C120.002 173.61 121.619 172.253 124.051 171.473C126.027 170.839 127.63 170.743 128.862 171.186C129.983 170.239 131.417 169.486 133.165 168.925C135.673 168.12 137.831 168.056 139.641 168.732C139.847 168.331 140.218 167.918 140.753 167.495C141.363 167.048 141.973 166.727 142.581 166.531C143.188 166.336 143.921 166.269 144.778 166.329C144.051 165.892 143.341 165.114 142.647 163.996C141.953 162.878 141.398 161.673 140.984 160.381C140.496 158.861 140.344 157.736 140.529 157.006C139.474 156.591 138.523 155.848 137.677 154.779C136.907 153.685 136.302 152.454 135.863 151.086C135.083 148.655 134.981 146.508 135.557 144.647C135.033 144.061 134.637 143.35 134.369 142.514C133.906 141.07 134.098 139.709 134.945 138.432C135.844 137.054 137.053 136.121 138.573 135.633C139.788 135.243 140.974 135.281 142.13 135.749C143.337 136.115 144.287 136.984 144.978 138.355C146.182 138.974 147.09 140.233 147.699 142.133C148.163 143.577 148.199 144.864 147.807 145.996C148.583 146.585 149.215 147.639 149.703 149.159C150.117 150.451 150.282 151.487 150.198 152.269C152.151 153.654 153.384 155.144 153.896 156.739C154.164 157.575 154.268 158.422 154.208 159.279C154.2 160.036 154.087 161.12 153.869 162.531C154.762 161.658 155.626 161.087 156.462 160.819C157.906 160.356 159.331 160.485 160.736 161.207C160.991 160.958 161.46 160.723 162.144 160.504C162.752 160.309 163.233 160.238 163.585 160.293C164.226 159.417 165.154 158.784 166.37 158.393C167.282 158.101 168.129 157.997 168.91 158.081C169.266 157.883 169.861 157.65 170.697 157.382C172.065 156.943 173.152 156.803 173.958 156.964Z" fill="#161E39"/>
<path d="M327.45 153.335C326.28 152.482 325.595 151.424 325.396 150.159C325.104 148.305 325.673 146.704 327.102 145.356C326.832 144.189 327.004 143.082 327.617 142.036C328.23 140.989 329.064 140.253 330.12 139.828C330.4 138.315 331.029 137.094 332.005 136.163C332.969 135.147 334.021 134.42 335.161 133.982C334.944 133.152 335.184 132.207 335.881 131.147C336.579 130.088 337.484 129.254 338.598 128.647C338.603 128.128 338.792 127.407 339.165 126.485C337.963 125.983 336.548 124.953 334.921 123.394C333.378 121.823 332.521 120.49 332.348 119.394C329.495 119.929 327.196 118.217 325.451 114.259C323.938 113.979 322.568 113.503 321.339 112.832C320.182 112.064 319.404 111.236 319.005 110.349C318.025 110.158 317.138 109.736 316.344 109.083C315.55 108.43 315.061 107.514 314.875 106.334C314.835 106.081 314.847 105.604 314.909 104.903C315.061 103.67 315.512 102.692 316.262 101.969C316.999 101.162 317.915 100.673 319.011 100.5C320.444 100.275 321.908 100.52 323.402 101.235C324.981 101.937 326.088 102.929 326.721 104.212C328.74 104.412 330.334 104.939 331.505 105.792C332.746 106.546 333.668 107.74 334.271 109.373C335.411 108.935 336.573 109.184 337.757 110.121C339.012 110.96 339.681 112.194 339.765 113.822C340.452 113.8 341.248 114.193 342.153 115.001C343.128 115.711 343.731 116.524 343.961 117.438C344.649 117.416 345.376 117.647 346.144 118.131C346.348 117.235 346.914 116.714 347.841 116.568C347.922 115.433 348.541 114.428 349.7 113.555C349.599 112.361 350.003 111.088 350.913 109.736C351.81 108.299 352.816 107.277 353.93 106.67C354.046 104.665 354.693 103.008 355.869 101.7C357.032 100.308 358.443 99.3951 360.103 98.9614C360.454 97.3512 361.056 95.9608 361.909 94.7901C362.845 93.6062 364.03 92.9015 365.463 92.6762C365.801 92.6231 366.404 92.6146 367.273 92.6506C368.169 92.8552 368.881 93.2616 369.409 93.8697C369.923 94.3935 370.246 95.0768 370.379 95.9198C370.671 97.7744 370.204 99.7482 368.978 101.841C367.837 103.921 366.394 105.185 364.65 105.632C365.155 107.194 364.839 108.755 363.703 110.316C362.637 111.779 361.459 112.526 360.168 112.556C360.593 113.612 360.426 115.021 359.666 116.782C358.907 118.542 358.09 119.664 357.215 120.147C357.175 121.536 356.63 122.744 355.583 123.773C357.038 124.235 358.089 125.15 358.735 126.516C360.514 126.841 361.789 127.807 362.56 129.413C363.625 129.591 364.68 129.987 365.727 130.6C366.858 131.199 367.538 131.956 367.768 132.87C369.13 132.742 370.306 133.076 371.294 133.87C372.368 134.652 373.052 135.71 373.349 137.046C375.11 137.805 376.136 139.113 376.427 140.967C376.587 141.979 376.479 142.946 376.106 143.868C375.733 144.791 375.116 145.536 374.255 146.103C373.944 146.325 373.41 146.495 372.651 146.614C371.218 146.84 369.754 146.595 368.259 145.88C366.765 145.165 365.707 144.208 365.087 143.01C363.699 142.969 362.552 142.545 361.648 141.737C360.73 140.845 360.065 139.913 359.653 138.941C357.714 139.246 356.144 138.326 354.943 136.183C353.989 136.16 353.129 135.907 352.362 135.423C351.666 134.841 351.125 134.149 350.739 133.346C349.857 133.225 349.123 132.952 348.537 132.526C348.141 134.402 347.133 135.684 345.514 136.37C345.024 139.298 343.111 141.413 339.774 142.715C339.933 143.727 339.79 144.743 339.346 145.763C338.889 146.698 338.223 147.408 337.349 147.891C337.224 149.293 336.482 150.619 335.124 151.869C333.85 153.106 332.454 153.844 330.937 154.082C329.588 154.294 328.426 154.045 327.45 153.335Z" fill="#161E39"/>
<path d="M515.832 95.384C515.32 95.2133 514.851 95.128 514.424 95.128C513.144 95.128 511.992 95.64 510.968 96.664C509.944 97.6027 509.432 98.6693 509.432 99.864C509.432 101.4 510.029 102.765 511.224 103.96C512.504 105.069 513.869 105.539 515.32 105.368C516.003 105.539 516.515 105.624 516.856 105.624C517.197 105.624 517.624 105.539 518.136 105.368C518.989 106.051 519.885 106.392 520.824 106.392C521.507 106.392 522.147 106.264 522.744 106.008C523.597 106.435 524.451 106.648 525.304 106.648C525.901 106.648 526.584 106.52 527.352 106.264C528.12 106.776 528.888 107.032 529.656 107.032C530.253 107.032 530.893 106.904 531.576 106.648C532.6 106.819 533.283 106.904 533.624 106.904C534.392 106.904 534.989 106.691 535.416 106.264C535.672 106.605 536.099 106.904 536.696 107.16C537.379 107.416 538.104 107.544 538.872 107.544C540.152 107.544 541.176 107.203 541.944 106.52C542.285 106.691 542.883 106.947 543.736 107.288C544.589 107.629 545.357 107.8 546.04 107.8C546.979 107.8 547.832 107.459 548.6 106.776C548.941 106.947 549.496 107.032 550.264 107.032C551.288 107.032 552.056 106.819 552.568 106.392C553.421 106.733 554.061 106.904 554.488 106.904C555.768 106.904 556.835 106.349 557.688 105.24C558.541 104.131 558.968 102.851 558.968 101.4C558.968 100.291 558.669 99.3093 558.072 98.456C557.475 97.6027 556.579 97.0053 555.384 96.664C554.872 96.0667 553.848 95.768 552.312 95.768C551.629 95.768 550.947 95.8533 550.264 96.024C549.581 96.1947 549.112 96.408 548.856 96.664C548.6 96.5787 548.216 96.536 547.704 96.536C546.851 96.536 546.125 96.7067 545.528 97.048C544.333 96.4507 542.883 96.152 541.176 96.152C540.152 96.152 539.299 96.3227 538.616 96.664C537.592 96.0667 536.312 95.768 534.776 95.768C533.069 95.768 531.789 96.2373 530.936 97.176C529.997 96.2373 528.888 95.768 527.608 95.768C526.755 95.768 525.944 96.024 525.176 96.536C524.493 96.28 523.853 96.152 523.256 96.152C522.659 96.152 522.189 96.1947 521.848 96.28C520.909 95.4267 519.715 95 518.264 95C517.325 95 516.515 95.128 515.832 95.384ZM555.64 121.88C557.005 121.795 558.115 122.349 558.968 123.544C559.821 124.653 560.248 125.933 560.248 127.384C560.248 128.493 559.907 129.432 559.224 130.2C558.627 130.968 557.731 131.352 556.536 131.352C555.768 131.352 555.128 131.267 554.616 131.096C553.421 132.035 552.483 132.504 551.8 132.504C551.373 132.504 550.904 132.419 550.392 132.248C549.965 131.992 549.667 131.821 549.496 131.736C548.643 132.163 547.832 132.376 547.064 132.376C545.955 132.376 544.931 131.992 543.992 131.224C542.968 132.333 541.432 132.888 539.384 132.888C537.507 132.888 536.099 132.504 535.16 131.736C534.307 132.845 533.112 133.4 531.576 133.4C530.467 133.4 529.443 133.016 528.504 132.248C527.48 133.101 526.243 133.528 524.792 133.528C523.427 133.528 522.317 133.059 521.464 132.12C521.208 132.632 520.611 133.144 519.672 133.656C518.733 134.083 517.709 134.296 516.6 134.296C515.576 134.296 514.637 134.04 513.784 133.528C513.101 133.869 512.376 134.04 511.608 134.04C510.328 134.04 509.219 133.571 508.28 132.632C507.427 131.608 507 130.456 507 129.176C507 127.384 507.896 126.061 509.688 125.208C510.029 124.44 510.584 123.843 511.352 123.416C512.12 122.989 512.888 122.776 513.656 122.776C514.424 122.776 515.235 122.989 516.088 123.416C516.941 122.904 517.923 122.648 519.032 122.648C519.459 122.648 519.928 122.733 520.44 122.904C521.037 122.563 521.763 122.392 522.616 122.392C523.64 122.392 524.621 122.733 525.56 123.416C526.584 122.648 527.736 122.264 529.016 122.264C529.869 122.264 530.637 122.435 531.32 122.776C531.747 122.52 532.387 122.307 533.24 122.136C534.093 121.88 534.904 121.752 535.672 121.752C537.208 121.752 538.36 122.136 539.128 122.904C540.067 121.965 541.432 121.496 543.224 121.496C545.016 121.496 546.424 121.923 547.448 122.776C548.131 122.52 548.771 122.392 549.368 122.392C549.709 122.392 550.136 122.477 550.648 122.648C551.416 121.965 552.397 121.624 553.592 121.624C554.275 121.624 554.915 121.752 555.512 122.008L555.64 121.88Z" fill="#161E39"/>
<rect x="390.921" y="236.989" width="180" height="141" rx="36" transform="rotate(2 390.921 236.989)" fill="#0096CC"/>
<rect x="391.549" y="219" width="180" height="141" rx="36" transform="rotate(2 391.549 219)" fill="#00B2F2"/>
<path d="M494.469 323.087C489.968 327.285 484.295 329.264 477.452 329.025C470.608 328.786 465.087 326.416 460.89 321.915C456.694 317.349 454.711 311.805 454.939 305.281C455.048 302.147 455.756 299.29 457.063 296.71C458.434 294.132 460.49 291.194 463.23 287.896L486.964 260.195L500.203 260.657L480.171 284.165L481.226 284.201C486.791 284.396 491.642 286.678 495.78 291.05C499.92 295.357 501.882 300.612 501.665 306.817C501.435 313.404 499.037 318.828 494.469 323.087ZM468.82 314.891C471.165 317.407 474.161 318.728 477.807 318.855C481.453 318.982 484.533 317.873 487.049 315.528C489.566 313.118 490.887 310.122 491.013 306.541C491.135 303.023 489.993 299.973 487.586 297.391C485.242 294.812 482.28 293.46 478.698 293.335C475.116 293.21 472.066 294.352 469.549 296.762C467.031 299.171 465.711 302.135 465.588 305.653C465.463 309.235 466.54 312.314 468.82 314.891Z" fill="white"/>
<path d="M273.891 173.709C274.522 172.898 275.424 172.383 276.599 172.165C277.522 171.994 278.232 172.079 278.729 172.42C280.46 171.925 281.872 172.054 282.967 172.805C284.045 173.473 284.709 174.478 284.959 175.82C285.223 177.247 284.878 178.656 283.921 180.049C283.049 181.426 281.647 182.294 279.718 182.652L278.562 182.736C277.627 183.778 276.446 184.431 275.02 184.696C274.013 184.883 273.017 184.894 272.032 184.73C271.234 185.573 270.247 186.103 269.073 186.321C267.898 186.539 266.779 186.357 265.716 185.773C264.89 187.402 263.764 188.349 262.338 188.613C261.499 188.769 260.254 188.61 258.604 188.135C258.026 188.763 257.192 189.178 256.101 189.381C255.179 189.552 254.19 189.606 253.137 189.541C252.385 190.635 251.338 191.307 249.996 191.556C248.737 191.79 247.477 191.547 246.215 190.826C245.911 191.056 245.423 191.234 244.752 191.358C244.164 191.468 243.737 191.504 243.47 191.466C242.551 192.592 241.462 193.271 240.203 193.505C239.532 193.63 238.837 193.628 238.119 193.501C237.39 194.245 236.437 194.725 235.263 194.943C234.424 195.099 233.496 195.011 232.48 194.679C230.87 194.891 229.429 194.378 228.158 193.138C226.87 191.815 226.063 190.272 225.736 188.511C225.362 186.497 225.719 184.912 226.806 183.755C226.342 182.192 226.504 180.73 227.293 179.369C228.166 177.991 229.407 177.197 231.016 176.985C230.658 175.055 231.117 173.321 232.394 171.782C233.655 170.159 235.403 168.359 237.64 166.381C237.172 163.864 238.526 161.573 241.701 159.508C241.672 157.951 242.433 156.204 243.983 154.267C245.517 152.247 247.087 150.653 248.693 149.487C248.627 148.197 248.936 147.055 249.619 146.06C250.37 144.966 251.326 144.268 252.485 143.966C252.021 142.403 252.275 140.967 253.247 139.658C254.203 138.266 255.486 137.463 257.096 137.251C256.956 136.496 256.999 135.794 257.226 135.144C257.452 134.494 257.728 133.879 258.054 133.298C258.38 132.716 258.612 132.326 258.748 132.127C258.456 131.487 258.279 130.999 258.216 130.664C258.029 129.657 258.152 128.68 258.583 127.732C258.999 126.7 259.637 125.93 260.498 125.423C260.112 124.28 259.841 123.289 259.685 122.45C259.249 120.1 259.291 118.226 259.813 116.828C258.713 116.511 257.726 115.87 256.852 114.904C255.73 114.939 254.672 114.615 253.677 113.931C252.682 113.248 252 112.377 251.629 111.317C251.325 111.547 250.711 111.748 249.788 111.92C248.614 112.138 247.358 112.154 246.022 111.968C244.754 111.683 243.764 111.259 243.052 110.697C242.49 111.409 241.66 112.084 240.564 112.721C239.467 113.359 238.339 113.829 237.18 114.131C236.832 115.063 236.107 116.066 235.005 117.139C233.986 118.196 233.031 118.894 232.139 119.233C232.174 120.355 231.721 121.654 230.78 123.131C229.907 124.508 228.964 125.507 227.952 126.129C228.242 128.159 228.126 129.873 227.605 131.271C227.152 132.57 225.918 133.407 223.905 133.781C222.562 134.03 221.252 133.753 219.975 132.949C218.765 132.045 218.036 130.922 217.787 129.579C217.678 128.992 217.694 128.381 217.837 127.747L217.524 126.764C217.213 125.086 217.462 123.391 218.272 121.678C219.166 119.95 220.322 118.694 221.738 117.91C221.296 115.996 221.553 114.342 222.51 112.949C223.55 111.541 224.909 110.681 226.587 110.37C226.668 109.4 227.506 108.073 229.102 106.387C230.699 104.702 232.302 103.754 233.912 103.542C235.235 102.254 237.407 101.33 240.427 100.769C241.769 100.52 243.059 100.454 244.296 100.572C245.517 100.605 246.434 100.869 247.047 101.363C247.882 100.253 248.971 99.5733 250.313 99.324C251.32 99.137 252.248 99.2251 253.096 99.5883C254.013 99.852 254.61 100.262 254.887 100.818C256.696 100.743 258.256 101.668 259.568 103.594C260.591 103.491 261.542 103.705 262.422 104.236C263.37 104.667 264.055 105.321 264.478 106.197C265.715 106.315 266.89 107.268 268.004 109.058C269.201 110.831 270.002 112.809 270.408 114.99C270.61 116.081 270.679 117.153 270.614 118.207C271.006 118.915 271.241 119.479 271.319 119.899C271.459 120.654 271.298 121.421 270.835 122.202C271.128 122.842 271.321 123.413 271.414 123.917C271.679 125.343 271.608 126.832 271.202 128.383C270.796 129.933 270.128 131.012 269.199 131.619C269.349 132.893 269.247 134.213 268.894 135.581C268.608 136.849 268.074 137.946 267.292 138.873C267.389 140.33 267.093 141.774 266.403 143.204C265.783 144.534 264.756 145.549 263.324 146.249C263.259 147.303 262.783 148.476 261.894 149.769C261.09 151.047 260.234 151.814 259.327 152.069C259.288 153.725 258.519 155.43 257.022 157.184C255.51 158.853 253.827 160.077 251.976 160.855C251.952 162.595 251.674 163.905 251.143 164.785C250.612 165.665 249.468 166.745 247.709 168.026C247.904 170.941 246.382 173.263 243.145 174.993C243.006 176.581 242.812 177.875 242.564 178.876C242.316 179.877 241.869 180.741 241.223 181.469C242.288 180.663 243.282 180.175 244.205 180.003C245.128 179.832 246.14 179.905 247.24 180.221C247.97 179.478 248.88 179.005 249.971 178.802C251.062 178.6 251.94 178.654 252.605 178.964C253.67 178.159 254.832 177.639 256.091 177.406C257.098 177.219 257.941 177.322 258.622 177.717C259.61 176.492 261.026 175.708 262.872 175.365C264.215 175.116 265.528 175.176 266.811 175.545C267.93 174.556 269.244 173.922 270.754 173.641C271.761 173.454 272.806 173.477 273.891 173.709Z" fill="#161E39"/>
<defs>
<linearGradient id="paint0_linear_382_191" x1="190.427" y1="518.714" x2="163.792" y2="602.994" gradientUnits="userSpaceOnUse">
<stop stop-color="#00B2F2"/>
<stop offset="1" stop-color="#0096CC"/>
</linearGradient>
<linearGradient id="paint1_linear_382_191" x1="190.427" y1="518.714" x2="163.792" y2="602.994" gradientUnits="userSpaceOnUse">
<stop stop-color="#00B2F2"/>
<stop offset="1" stop-color="#0096CC"/>
</linearGradient>
</defs>
</svg>
